<?xml version="1.0" encoding="utf-8"?>
<!-- Generator: Adobe Illustrator 26.3.1, SVG Export Plug-In . SVG Version: 6.00 Build 0)  -->
<svg version="1.1" id="Layer_1" xmlns="http://www.w3.org/2000/svg" xmlns:xlink="http://www.w3.org/1999/xlink" x="0px" y="0px"
	 viewBox="0 0 26 24.9" style="enable-background:new 0 0 26 24.9;" xml:space="preserve">
<style type="text/css">
	.st0{clip-path:url(#SVGID_00000181788848798486781520000009864082319137414060_);}
	.st1{fill:#FFFFFF;}
</style>
<g id="Group_40" transform="translate(0 0)">
	<g>
		<defs>
			<rect id="SVGID_1_" width="26" height="24.9"/>
		</defs>
		<clipPath id="SVGID_00000065037495298823415680000005310612403895429769_">
			<use xlink:href="#SVGID_1_"  style="overflow:visible;"/>
		</clipPath>
		
			<g id="Group_39" transform="translate(0 0)" style="clip-path:url(#SVGID_00000065037495298823415680000005310612403895429769_);">
			<path id="Path_241" class="st1" d="M16.3,14.7c-0.1-0.2-0.4-0.3-0.6-0.2c-0.2,0.1-0.3,0.4-0.2,0.6l0,0c0.9,1.6,1.2,2.9,0.7,3.4
				c-0.2,0.1-0.4,0.2-0.6,0.3h-0.5c-0.8-0.2-1.7-0.5-2.4-0.9c0,0,0,0-0.1,0c-0.1,0-0.2-0.1-0.3-0.2c-0.1,0-0.2-0.1-0.3-0.2
				c0,0-0.1,0-0.1-0.1l-0.4-0.3c-0.3-0.2-0.5-0.4-0.8-0.6c-0.1-0.1-0.3-0.2-0.4-0.3l-0.1-0.1c-0.1-0.1-0.2-0.2-0.3-0.3
				c-0.1-0.1-0.2-0.2-0.3-0.3l-0.1-0.1c-0.9-0.9-1.7-1.9-2.4-3c-0.6-0.9-1-1.9-1-3c0-0.2,0.1-0.4,0.3-0.6c0.5-0.5,1.8-0.2,3.4,0.7
				c0.2,0.1,0.5,0.1,0.6-0.2c0.1-0.2,0.1-0.5-0.2-0.6l0,0c-2-1.2-3.6-1.3-4.4-0.5c-0.3,0.3-0.4,0.7-0.5,1l-2,4.9l-3.2,8.4
				c-0.2,0.6-0.1,1.2,0.2,1.7c0.3,0.5,0.9,0.8,1.5,0.8c0.2,0,0.5,0,0.7-0.1L5,23.8l5.9-2.2l4.9-1.9c0.4,0,0.8-0.2,1-0.5
				C17.6,18.3,17.4,16.7,16.3,14.7 M2.1,23.8c-0.4,0.2-0.8,0-1.1-0.3c-0.2-0.2-0.2-0.6-0.1-0.8l1.1-2.9c0.5,1.2,1.1,2.4,1.9,3.4
				L2.1,23.8z M7.8,21.7c-2-2-3.2-4.6-3.6-7.5l1.1-2.8C5.4,15.1,7,18.5,9.8,21L7.8,21.7z"/>
			<path id="Path_242" class="st1" d="M18.4,11c-4.9,2.1-5.3,5.2-5.3,5.4c0,0.3,0.2,0.5,0.4,0.5h0c0.2,0,0.4-0.2,0.5-0.4
				c0,0,0.3-2.8,4.7-4.6c0.2-0.1,0.3-0.3,0.3-0.6c0,0,0,0,0,0C18.9,11,18.6,10.9,18.4,11 M7.9,11.3c0,0.2,0.2,0.4,0.5,0.4h0
				c0.1,0,3.4-0.4,5.4-5.3c0.1-0.2,0-0.5-0.3-0.6c-0.2-0.1-0.5,0-0.6,0.2c-1.8,4.4-4.5,4.7-4.6,4.7C8.1,10.8,7.9,11,7.9,11.3
				 M11.3,2.9L12,3.1l-0.2,0.7c-0.1,0.2,0,0.5,0.3,0.6c0,0,0,0,0,0c0,0,0.1,0,0.1,0c0.2,0,0.4-0.1,0.4-0.3l0.2-0.7l0.7,0.2
				c0,0,0.1,0,0.1,0c0.2,0,0.4-0.1,0.4-0.3c0.1-0.2,0-0.5-0.3-0.6c0,0,0,0,0,0l-0.7-0.2l0.2-0.7c0.1-0.2-0.1-0.5-0.3-0.6
				c-0.2-0.1-0.5,0.1-0.6,0.3l0,0l-0.2,0.7L11.5,2c-0.2-0.1-0.5,0-0.6,0.3c0,0,0,0,0,0C10.9,2.5,11.1,2.8,11.3,2.9 M17.4,4.6
				l0.3,0.1c0.1,0.1,0.2,0.2,0.3,0.3L18,5.3c0.2,0.6,0.7,1,1.3,1c0.4,0,0.9-0.2,1.1-0.6l0.2-0.2c0.1-0.1,0.2-0.2,0.4-0.2h0.3
				c0.5,0,1-0.3,1.2-0.8c0.2-0.5,0.2-1-0.1-1.4l-0.2-0.2c-0.1-0.1-0.1-0.3-0.1-0.4l0.1-0.3c0.1-0.4,0.1-0.9-0.2-1.2
				c-0.3-0.5-1-0.7-1.6-0.5l-0.3,0.1c-0.1,0.1-0.3,0-0.4-0.1l-0.2-0.2c-0.5-0.4-1.3-0.3-1.8,0.1c-0.3,0.3-0.4,0.6-0.4,1v0.3
				c0,0.1-0.1,0.3-0.2,0.4L17,2.2c-0.4,0.3-0.6,0.8-0.5,1.3C16.5,4,16.8,4.5,17.4,4.6 M25.7,10.1L25.7,10.1
				c-0.2-0.2-0.2-0.4-0.1-0.5l0-0.1c0.1-0.4,0.1-0.9-0.2-1.2c-0.3-0.5-1-0.7-1.6-0.5l-0.1,0c-0.1,0.1-0.3,0-0.4-0.1l-0.1-0.1
				c-0.6-0.4-1.3-0.3-1.8,0.1c-0.3,0.3-0.4,0.6-0.4,1v0.1c0,0.2-0.1,0.3-0.2,0.4l-0.1,0.1c-0.4,0.3-0.6,0.8-0.5,1.3
				c0.1,0.5,0.4,0.9,0.9,1.1l0.1,0c0.1,0.1,0.2,0.2,0.3,0.3l0,0.1c0.2,0.6,0.7,1,1.3,1c0.4,0,0.9-0.2,1.1-0.6l0.1-0.1
				c0.1-0.1,0.2-0.2,0.4-0.2h0.1c0.5,0,1-0.3,1.2-0.8C26.1,11.1,26,10.5,25.7,10.1 M11.1,13.3c-0.1,0.2-0.1,0.5,0.1,0.6
				c0.1,0,0.2,0.1,0.3,0.1c0.2,0,0.3-0.1,0.4-0.2c0,0,3.8-5.3,7.8-5.7c0.3,0,0.4-0.2,0.4-0.5c0-0.3-0.2-0.4-0.5-0.4
				C15.1,7.7,11.2,13.1,11.1,13.3 M21.9,14.6l-0.7-0.2l0.2-0.7c0.1-0.2-0.1-0.5-0.3-0.6c-0.2-0.1-0.5,0.1-0.6,0.3l0,0l-0.2,0.7
				l-0.7-0.2c-0.2-0.1-0.5,0.1-0.6,0.3c-0.1,0.2,0.1,0.5,0.3,0.6l0.7,0.2l-0.2,0.7c-0.1,0.2,0,0.5,0.3,0.6c0,0,0,0,0,0h0.1
				c0.2,0,0.4-0.1,0.4-0.3l0.2-0.7l0.7,0.2h0.1c0.2,0,0.4-0.1,0.4-0.3c0.1-0.1,0.1-0.3,0-0.4C22.1,14.7,22,14.6,21.9,14.6"/>
		</g>
	</g>
</g>
</svg>
