<?xml version="1.0" encoding="utf-8"?>
<!-- Generator: Adobe Illustrator 26.3.1, SVG Export Plug-In . SVG Version: 6.00 Build 0)  -->
<svg version="1.1" id="Layer_1" xmlns="http://www.w3.org/2000/svg" xmlns:xlink="http://www.w3.org/1999/xlink" x="0px" y="0px"
	 viewBox="0 0 144.5 160.4" style="enable-background:new 0 0 144.5 160.4;" xml:space="preserve">
<style type="text/css">
	.st0{clip-path:url(#SVGID_00000113345382746713027320000016227404605045654691_);}
	.st1{fill:#B7B0F3;}
	.st2{fill:#FFFFFF;}
	.st3{fill:none;stroke:#000000;stroke-width:3;stroke-miterlimit:10;}
</style>
<g>
	<defs>
		<rect id="SVGID_1_" width="144.5" height="160.4"/>
	</defs>
	<clipPath id="SVGID_00000078736180622423173670000015975948077064244639_">
		<use xlink:href="#SVGID_1_"  style="overflow:visible;"/>
	</clipPath>
	<g id="Group_173" style="clip-path:url(#SVGID_00000078736180622423173670000015975948077064244639_);">
		<path id="Path_487" class="st1" d="M134.4,96.9c0,35.1-28.4,63.5-63.5,63.5S7.4,132,7.4,96.9c0-35.1,28.4-63.5,63.5-63.5
			C106,33.4,134.4,61.8,134.4,96.9C134.4,96.9,134.4,96.9,134.4,96.9"/>
		<path id="Path_488" class="st2" d="M6.5,147.6c0,0,12.9-20.6,5.2-39.5C3.9,93.5-2.5,85.3,3.9,80.6c3.9-2.1,9.9-2.1,13.3,7.3
			c1,2.7,0.8,5.6-0.4,8.2c0,0,6.9-16.3,5.2-40.4c0-12,6-17.2,11.2-8.6c3.4,5.2,3,32.2,3,32.2s3-26.2,3-33.9s5.2-11.2,9.4-6.9
			s1.7,37.8,0.4,40.8c6-26.6,8.2-36.5,11.6-37.4c3.4-0.9,8.6,0.9,4.3,27.5c-4.3,23.2-12,65.3-20.6,80.7"/>
		<path id="Path_489" class="st2" d="M105.7,116.2c0,0-15.5,9.4-22.3-18.9c-3.4-20.6-6.9-55,1.7-58.4c4.7-1.3,5.2,2.6,5.2,13.7
			c0,6.5,1.1,12.9,3.2,19.1c0,0,0.1,0.1,0.1,0c0,0,0,0,0-0.1c-0.6-4-3.5-24.4,2.7-33.6c4.3-6,9.4-3.4,9.4,4.3
			c0,6.9-0.7,21.9,0.4,27.6c0,0.1,0.2,0.2,0.3,0.1c0.1,0,0.1-0.1,0.1-0.2c-0.5-12.1,3-30.1,9.5-30.1c4.3,0,4.3,1.7,3.4,14.6
			s-4.3,34.3,3.4,38.6c3.4,1.7,10.3-7.7,10.3-7.7s3.4-4.3,6-3.4s6,2.6,2.6,9.4c-3.4,6-12,19.7-26.6,22.3"/>
		<path id="Path_490" class="st2" d="M93,115.7c0.4,9.3,13.5,34,13.5,34l30.1-6c-8.6-10.3-13.3-32.9-13.3-32.9"/>
		<path id="Path_491" class="st3" d="M6.5,147.6c0,0,12.9-20.6,5.2-39.5C3.9,93.5-2.5,85.3,3.9,80.6c3.9-2.1,9.9-2.1,13.3,7.3
			c1,2.7,0.8,5.6-0.4,8.2c0,0,6.9-16.3,5.2-40.4c0-12,6-17.2,11.2-8.6c3.4,5.2,3,32.2,3,32.2s3-26.2,3-33.9s5.2-11.2,9.4-6.9
			s1.7,37.8,0.4,40.8c6-26.6,8.2-36.5,11.6-37.4c3.4-0.9,8.6,0.9,4.3,27.5c-4.3,23.2-12,65.3-20.6,80.7"/>
		<path id="Path_492" class="st3" d="M105.7,116.2c0,0-15.5,9.4-22.3-18.9c-3.4-20.6-6.9-55,1.7-58.4c3.4-2.6,5.2,2.6,5.2,13.7
			c0,6.5,1.1,12.9,3.2,19.1c0,0,0.1,0.1,0.1,0c0,0,0,0,0-0.1c-0.6-4-3.5-24.4,2.7-33.6c4.3-6,9.4-3.4,9.4,4.3
			c0,6.9-0.7,21.9,0.4,27.6c0,0.1,0.2,0.2,0.3,0.1c0.1,0,0.1-0.1,0.1-0.2c-0.5-12.1,3-30.1,9.5-30.1c4.3,0,4.3,1.7,3.4,14.6
			s-4.3,34.3,3.4,38.6c3.4,1.7,10.3-7.7,10.3-7.7s3.4-4.3,6-3.4s6,2.6,2.6,9.4c-3.4,6-12,19.7-26.6,22.3"/>
		<path id="Path_493" class="st3" d="M106.5,149.7c0,0-13.1-24.7-13.5-34"/>
		<path id="Path_494" class="st3" d="M123.3,110.8c0,0,4.7,22.6,13.3,32.9"/>
		<line id="Line_57" class="st3" x1="42.6" y1="10.2" x2="49" y2="23.5"/>
		<line id="Line_58" class="st3" x1="105.7" y1="10.2" x2="99.2" y2="23.5"/>
		<line id="Line_59" class="st3" x1="74.1" y1="0" x2="74.1" y2="14.8"/>
	</g>
</g>
</svg>
