<?xml version="1.0" encoding="utf-8"?>
<!-- Generator: Adobe Illustrator 26.3.1, SVG Export Plug-In . SVG Version: 6.00 Build 0)  -->
<svg version="1.1" id="Layer_1" xmlns="http://www.w3.org/2000/svg" xmlns:xlink="http://www.w3.org/1999/xlink" x="0px" y="0px"
	 viewBox="0 0 158 158" style="enable-background:new 0 0 158 158;" xml:space="preserve">
<style type="text/css">
	.st0{fill:#A9A0FF;}
	.st1{clip-path:url(#SVGID_00000178884370502852293830000015748673530069473176_);}
	.st2{clip-path:url(#SVGID_00000170241582362991104460000009124294969282658720_);}
	.st3{fill:#FFFFFF;}
	.st4{clip-path:url(#SVGID_00000147933114943100844100000011273830880935766961_);}
	.st5{fill:none;stroke:#000000;stroke-width:3;stroke-miterlimit:10;}
</style>
<g id="Group_156" transform="translate(-135 -285)">
	<circle id="Ellipse_71" class="st0" cx="214" cy="364" r="79"/>
	<g>
		<defs>
			<circle id="SVGID_1_" cx="214" cy="364" r="79"/>
		</defs>
		<clipPath id="SVGID_00000066506859927448681960000010979562023515049880_">
			<use xlink:href="#SVGID_1_"  style="overflow:visible;"/>
		</clipPath>
		<g id="Mask_Group_28" style="clip-path:url(#SVGID_00000066506859927448681960000010979562023515049880_);">
			<g id="Group_155" transform="translate(164 304.195)">
				<g id="Group_152">
					<g>
						<defs>
							<rect id="SVGID_00000079479281930008883790000006449990336489065856_" y="0" width="101.5" height="143.8"/>
						</defs>
						<clipPath id="SVGID_00000158724685185102097770000001423189705478327432_">
							<use xlink:href="#SVGID_00000079479281930008883790000006449990336489065856_"  style="overflow:visible;"/>
						</clipPath>
						<g id="Group_151" style="clip-path:url(#SVGID_00000158724685185102097770000001423189705478327432_);">
							<path id="Path_439" class="st3" d="M1.5,137c0,0,1-24,7-27c6-4,16-11,16-11l-1-5l10-8v-8c4.1,3.7,9.8,4.8,15,3
								c9-3,20-12,20-12v15c0,0,7.8,9.1,10,11c1.4,1.2-3.1,4-2,5c3.8,3.6,15.7,8.8,18,10c5,3,6,17,7,23C65.5,140,21.5,151,1.5,137"
								/>
							<path id="Path_440" class="st3" d="M73.5,48c1-3,0-17,0-17c0-22-24-19-24-19s-24-3-24,19c0,0-1,14,0,17c-3,0-9,0-7,6
								c1,5,2,7,4,7c2,6,8,17,19,20h16c11-3,17-14,19-20c2,0,3-2,4-7C82.5,48,76.5,48,73.5,48"/>
						</g>
					</g>
				</g>
				<g id="Group_154">
					<g>
						<defs>
							<rect id="SVGID_00000182490591761520550490000005671078416637979052_" y="0" width="101.5" height="143.8"/>
						</defs>
						<clipPath id="SVGID_00000092426397263667627220000014894843567689742261_">
							<use xlink:href="#SVGID_00000182490591761520550490000005671078416637979052_"  style="overflow:visible;"/>
						</clipPath>
						<g id="Group_153" style="clip-path:url(#SVGID_00000092426397263667627220000014894843567689742261_);">
							<path id="Path_441" class="st5" d="M1.5,131c0,0,1-16,7-21c6-4,18-11,18-11"/>
							<path id="Path_442" class="st5" d="M34,83.5l-10,11l14,37l12-8L34,83.5z"/>
							<path id="Path_443" class="st5" d="M100,125.5c0,0,0-11-5.9-15.1c-6-4-18-11-18-11"/>
							<path id="Path_444" class="st5" d="M68.6,83.9l10,11l-14,37l-12-8L68.6,83.9z"/>
							<path id="Path_445" d="M54,131.5c0,1.1-0.9,2-2,2s-2-0.9-2-2s0.9-2,2-2S54,130.4,54,131.5"/>
							<path id="Path_446" class="st5" d="M73.5,48c1-3,0-17,0-17c0-22-24-19-24-19s-24-3-24,19c0,0-1,14,0,17c-3,0-9,0-7,6
								c1,5,2,7,4,7c1.6,4.7,5.6,12.5,12.6,17.1c3,1.9,6.6,2.9,10.2,2.9h8.4c3.9,0,7.7-1.2,10.9-3.4C71.2,73,75,65.6,76.5,61
								c2,0,3-2,4-7C82.5,48,76.5,48,73.5,48z"/>
							<line id="Line_46" class="st5" x1="34" y1="83.5" x2="33.3" y2="77.9"/>
							<line id="Line_47" class="st5" x1="68.6" y1="83.9" x2="68.4" y2="74.6"/>
							<path id="Path_447" class="st5" d="M47,64.5c0,0,10,1,15-6c0,7-3,9-6,10"/>
							<path id="Path_448" class="st5" d="M46,37.5c0,0-2,14-4,16c2.1,1.3,4.5,1.9,7,2"/>
							<path id="Path_449" d="M60.5,44.5H60c-0.6,0-1-0.4-1-1v-4c0-0.6,0.4-1,1-1h0.5c0.6,0,1,0.4,1,1v4
								C61.5,44.1,61.1,44.5,60.5,44.5"/>
							<path id="Path_450" d="M35.5,44.5H35c-0.6,0-1-0.4-1-1v-4c0-0.6,0.4-1,1-1h0.5c0.6,0,1,0.4,1,1v4
								C36.5,44.1,36.1,44.5,35.5,44.5"/>
							<path id="Path_451" class="st3" d="M72.6,24.6c0,0-48.6,7.9-51.6-6.1c5-1,6,0,6,0s-7-5-6-9h15c0,0-5-4-5-7c9,5,33,7,33,7
								S73.2,11.7,72.6,24.6"/>
							<path id="Path_452" class="st5" d="M72.6,24.6c0,0-48.6,7.9-51.6-6.1c5-1,6,0,6,0s-7-5-6-9h15c0,0-5-4-5-7c9,5,33,7,33,7
								S73.2,11.7,72.6,24.6z"/>
						</g>
					</g>
				</g>
			</g>
		</g>
	</g>
</g>
</svg>
