<?xml version="1.0" encoding="utf-8"?>
<!-- Generator: Adobe Illustrator 26.3.1, SVG Export Plug-In . SVG Version: 6.00 Build 0)  -->
<svg version="1.1" id="Layer_1" xmlns="http://www.w3.org/2000/svg" xmlns:xlink="http://www.w3.org/1999/xlink" x="0px" y="0px"
	 viewBox="0 0 320.3 112.4" style="enable-background:new 0 0 320.3 112.4;" xml:space="preserve">
<style type="text/css">
	.st0{clip-path:url(#SVGID_00000050659206747409287240000009197208856986045089_);}
	.st1{fill:#141416;}
	.st2{fill:#FFFFFF;}
</style>
<g>
	<defs>
		<rect id="SVGID_1_" width="320.3" height="112.4"/>
	</defs>
	<clipPath id="SVGID_00000059278454330639620630000009885072269540914080_">
		<use xlink:href="#SVGID_1_"  style="overflow:visible;"/>
	</clipPath>
	<g id="Group_203" style="clip-path:url(#SVGID_00000059278454330639620630000009885072269540914080_);">
		<path id="Path_500" class="st1" d="M104.6,63V19.6h11.2v41.2c0,3.6,2.3,4.7,5,4.7c0.9,0,1.8-0.1,2.7-0.4l0.3,8.9
			c-2.2,0.6-4.4,0.9-6.6,0.9C109.3,75,104.6,71.3,104.6,63"/>
		<path id="Path_501" class="st1" d="M130.8,53.5c0-12.2,9.4-21.4,22.5-21.4S176,41.3,176,53.5c0,12.3-9.5,21.5-22.6,21.5
			S130.8,65.8,130.8,53.5 M153.4,65.8c7.4,0,11.9-5.5,11.9-12.3c0-6.7-4.5-12.1-11.9-12.1c-7.4,0-11.9,5.4-11.9,12.1
			C141.4,60.3,145.9,65.8,153.4,65.8"/>
		<path id="Path_502" class="st1" d="M231,57V33h11.3v21.6c0,7.3,3.8,10,9.1,10c5.9,0,10.1-3.9,10.1-9.6V33h11.3v27.4
			c0,2.7,0.2,5.3,2.9,5.3c0.6,0,1.3-0.1,1.9-0.3l0.3,8.8c-1.7,0.5-3.4,0.7-5.2,0.8c-6.1,0-8.8-2.5-9.9-7.9c-3.2,5.1-8.9,8.2-15,8
			C237.5,75.1,231,68.3,231,57"/>
		<path id="Path_503" class="st1" d="M284.4,69.5l4.1-7c4.2,2.6,9.1,4.1,14,4.2c4,0,6.5-0.9,6.5-3.7c0-3.2-4-4.2-8.6-5.1
			c-6.8-1.4-15.5-3-15.5-12.7c0-8.6,7.6-13.1,16.8-13.1c5.7-0.1,11.4,1.5,16.3,4.5l-3.6,7.3c-3.7-2.2-7.8-3.3-12-3.4
			c-2.7,0-6.2,0.9-6.2,3.8c0,3,4.1,3.8,8.8,4.6c6.7,1.3,15.3,3.1,15.3,13c0,8.5-6.6,13.2-16.8,13.2C295.2,75,289.7,73.1,284.4,69.5"
			/>
		<path id="Path_504" class="st2" d="M43.8,13.3c3.1,0,6.3,0.5,9.3,1.5l1.3,0.4l5.7-12.1l-1.6-0.6C53.7,0.8,48.8,0,43.8,0h0
			C19.8,0,0.2,19.4,0,43.4c0,6.3,1.7,13.2,5.1,20.6l0.6,1.3l12.9-4.7L17.8,59c-2.7-5.7-4.1-11-4.1-15.7
			C13.7,26.8,27.2,13.3,43.8,13.3"/>
		<path id="Path_505" class="st2" d="M81.1,22.4l-0.6-1.3l-12.9,4.7l0.7,1.6c2.7,5.7,4.1,11,4.1,15.7c0,16.6-13.5,30.1-30.1,30.1
			c-3.1,0-6.3-0.5-9.3-1.5l-1-0.3v13.9c3.4,0.8,6.8,1.2,10.3,1.2h0c2.6,0,5.2-0.2,7.8-0.7c-2.7,2.9-5.2,5.4-7.4,7.5l-0.5,0.5v18.7
			l2.7-2.7c0.7-0.7,1.7-1.5,2.4-2.2l0.5-0.4l0,0c6.9-5.9,13.3-12.4,19-19.4C78,74,84.3,61.3,85.6,49.7c0.4-2.2,0.6-4.5,0.6-6.7
			C86.2,36.7,84.4,29.8,81.1,22.4"/>
		<path id="Path_506" class="st1" d="M39.3,44c0,3.4-2.7,6.1-6.1,6.1c-3.4,0-6.1-2.7-6.1-6.1c0-3.4,2.7-6.1,6.1-6.1
			C36.6,37.9,39.3,40.7,39.3,44L39.3,44"/>
		<path id="Path_507" class="st1" d="M58.6,44c0,3.4-2.7,6.1-6.1,6.1c-3.4,0-6.1-2.7-6.1-6.1c0-3.4,2.7-6.1,6.1-6.1
			S58.6,40.7,58.6,44L58.6,44"/>
		<path id="Path_508" class="st1" d="M205.1,42c3.9-0.1,7.6,2.1,9.4,5.6l9-4.4c-2.8-6.3-9.1-11.2-18.7-11.2
			c-10.1-0.2-18.9,6.7-21.1,16.5h11.7C196.9,44.5,200.8,41.9,205.1,42"/>
		<path id="Path_509" class="st1" d="M214.6,59.7c-3,5.2-9.6,6.9-14.7,4c-2.4-1.4-4.1-3.6-4.9-6.2h-11.5
			c1.7,10.5,10.1,17.5,21.5,17.5c9.5,0,15.9-4.5,18.9-11.1L214.6,59.7z"/>
	</g>
</g>
</svg>
