<?xml version="1.0" encoding="utf-8"?>
<!-- Generator: Adobe Illustrator 26.3.1, SVG Export Plug-In . SVG Version: 6.00 Build 0)  -->
<svg version="1.1" id="Layer_1" xmlns="http://www.w3.org/2000/svg" xmlns:xlink="http://www.w3.org/1999/xlink" x="0px" y="0px"
	 viewBox="0 0 22 22" style="enable-background:new 0 0 22 22;" xml:space="preserve">
<style type="text/css">
	.st0{fill-rule:evenodd;clip-rule:evenodd;fill:#A9A0FF;}
	.st1{fill:#A9A0FF;}
</style>
<path id="Path_468" class="st0" d="M11,20.6c5.3,0,9.6-4.3,9.6-9.6S16.3,1.4,11,1.4S1.4,5.7,1.4,11S5.7,20.6,11,20.6z M11,22
	c6.1,0,11-4.9,11-11S17.1,0,11,0S0,4.9,0,11S4.9,22,11,22z"/>
<path id="Path_469" class="st1" d="M7.2,8.3H9c-0.1-1,0.6-1.8,1.6-1.9c0.1,0,0.2,0,0.3,0c0.9-0.1,1.7,0.5,1.8,1.4c0,0.1,0,0.1,0,0.2
	c0,0.9-0.5,1.3-1.3,1.9c-1,0.6-1.6,1.6-1.6,2.7l0,0.6h1.8v-0.5c0-1,0.4-1.3,1.4-2c1-0.6,1.7-1.6,1.7-2.8c0-2.1-1.8-3.1-3.7-3.1
	C9.2,4.8,7.2,5.7,7.2,8.3z M9.4,15.9c0,0.7,0.6,1.3,1.3,1.3c0,0,0,0,0.1,0c0.7,0.1,1.3-0.4,1.4-1.2s-0.4-1.3-1.2-1.4
	c-0.1,0-0.2,0-0.3,0C10,14.5,9.4,15.1,9.4,15.9C9.4,15.8,9.4,15.8,9.4,15.9L9.4,15.9z"/>
</svg>
