<?xml version="1.0" encoding="utf-8"?>
<!-- Generator: Adobe Illustrator 26.3.1, SVG Export Plug-In . SVG Version: 6.00 Build 0)  -->
<svg version="1.1" id="Layer_1" xmlns="http://www.w3.org/2000/svg" xmlns:xlink="http://www.w3.org/1999/xlink" x="0px" y="0px"
	 viewBox="0 0 158 158" style="enable-background:new 0 0 158 158;" xml:space="preserve">
<style type="text/css">
	.st0{fill:#A9A0FF;}
	.st1{fill:#FFFFFF;}
	.st2{clip-path:url(#SVGID_00000098205774289254230430000007967413304099240840_);}
	.st3{fill:none;stroke:#000000;stroke-width:3;stroke-miterlimit:10;}
	.st4{fill:none;}
</style>
<circle id="Ellipse_72" class="st0" cx="79" cy="79" r="79"/>
<g id="Group_159" transform="translate(17.466 38.073)">
	<path id="Path_453" class="st1" d="M56.1,2.7h53.3v10.4h-8.2v12.6h6.6L121,46.2h-10.5v32.2H30L44.3,39L42.6,7.4l-6-4.7H56.1z"/>
	<g id="Group_158">
		<g>
			<defs>
				<rect id="SVGID_1_" x="0" y="0" width="123.1" height="81.9"/>
			</defs>
			<clipPath id="SVGID_00000119810777504692924590000017619035929644292260_">
				<use xlink:href="#SVGID_1_"  style="overflow:visible;"/>
			</clipPath>
			<g id="Group_157" style="clip-path:url(#SVGID_00000119810777504692924590000017619035929644292260_);">
				<path id="Path_454" class="st1" d="M58.6,29.7c0,15.9-28.9,50.9-28.9,50.9S0.8,45.6,0.8,29.7c0-15.9,12.9-28.9,28.9-28.9
					S58.6,13.7,58.6,29.7"/>
				<path id="Path_455" class="st3" d="M58.6,29.7c0,15.9-28.9,50.9-28.9,50.9S0.8,45.6,0.8,29.7c0-15.9,12.9-28.9,28.9-28.9
					S58.6,13.7,58.6,29.7z"/>
				<path id="Path_456" class="st1" d="M41.2,28.6c0,6.4-5.2,11.5-11.5,11.5S18.2,35,18.2,28.6c0-6.4,5.2-11.5,11.5-11.5
					C36.1,17,41.2,22.2,41.2,28.6C41.2,28.6,41.2,28.6,41.2,28.6"/>
				<circle id="Ellipse_77" class="st3" cx="30.1" cy="29" r="11.5"/>
				<path id="Path_457" class="st3" d="M50.9,3.3H110v9.9H59.7"/>
				<path id="Path_458" class="st1" d="M73.1,26.4h28V13.6"/>
				<path id="Path_459" class="st3" d="M73.1,26.4h28V13.6"/>
				<path id="Path_460" class="st1" d="M57.5,46.2h64.1l-13.2-19.8H63"/>
				<path id="Path_461" class="st3" d="M57.5,46.2h64.1l-13.2-19.8H63"/>
				<path id="Path_462" class="st1" d="M60.5,77V58.8h23.6V77"/>
				<path id="Path_463" class="st3" d="M60.5,77V58.8h23.6V77"/>
				<line id="Line_48" class="st4" x1="36.6" y1="78.1" x2="118.8" y2="78.1"/>
				<line id="Line_49" class="st3" x1="36.6" y1="78.1" x2="118.8" y2="78.1"/>
				<line id="Line_50" class="st4" x1="110.8" y1="77.8" x2="110.8" y2="47.4"/>
				<line id="Line_51" class="st3" x1="110.8" y1="77.8" x2="110.8" y2="47.4"/>
			</g>
		</g>
	</g>
</g>
</svg>
